<svg xmlns="http://www.w3.org/2000/svg" width="83.048" height="32" viewBox="0 0 83.048 32">
  <g id="logos" transform="translate(0 0)">
    <g id="logo_logoReversed_Logo" data-name="logo/logoReversed/Logo">
      <rect id="logo_logoReversed_Logo_background" data-name="logo/logoReversed/Logo background" width="83" height="32" fill="none"/>
      <g id="GB-Primary-Logo" transform="translate(0 0)">
        <path id="Shape" d="M6.718,12.561a7.2,7.2,0,0,1-2.638-.478,6.682,6.682,0,0,1-2.138-1.335,6.156,6.156,0,0,1-1.43-2.01A6.086,6.086,0,0,1,0,6.249,6.057,6.057,0,0,1,.5,3.792,6.137,6.137,0,0,1,1.9,1.8,6.485,6.485,0,0,1,3.989.474,6.983,6.983,0,0,1,6.577,0,7.7,7.7,0,0,1,9.123.434,7.374,7.374,0,0,1,11.351,1.67l.1.08L9.16,3.927l-.077-.075a3.013,3.013,0,0,0-1.058-.663,3.826,3.826,0,0,0-1.357-.238A3.415,3.415,0,0,0,5.4,3.176a2.684,2.684,0,0,0-.966.65,2.966,2.966,0,0,0-.625,1.022A3.9,3.9,0,0,0,3.588,6.2a4.017,4.017,0,0,0,.234,1.4,3.062,3.062,0,0,0,.665,1.073,3.007,3.007,0,0,0,1.03.69,3.5,3.5,0,0,0,1.333.245,3.417,3.417,0,0,0,1-.138,2.452,2.452,0,0,0,.787-.4,2.419,2.419,0,0,0,.581-.654,3.187,3.187,0,0,0,.331-.761H6.6v-2.6h6.09l.1,1.3a7.036,7.036,0,0,1-.435,2.52,5.69,5.69,0,0,1-1.242,1.964,5.574,5.574,0,0,1-1.92,1.271A6.612,6.612,0,0,1,6.718,12.561Zm62.373-.237H65.579V.237h5.13a7.416,7.416,0,0,1,2.8.475A3.876,3.876,0,0,1,75.3,2.11a3.863,3.863,0,0,1,.621,2.209,3.9,3.9,0,0,1-.548,2.091A3.723,3.723,0,0,1,73.9,7.742l2.774,4.582h-3.9L70.4,8.4H69.091v3.923Zm0-9.136h0V5.766h1.36a2.512,2.512,0,0,0,1.428-.332,1.082,1.082,0,0,0,.455-.957,1.083,1.083,0,0,0-.455-.957,2.512,2.512,0,0,0-1.428-.332h-1.36ZM17.024,12.324H13.51V.237h5.131a7.412,7.412,0,0,1,2.8.475,3.88,3.88,0,0,1,1.791,1.4,3.861,3.861,0,0,1,.622,2.209,3.892,3.892,0,0,1-.549,2.091,3.723,3.723,0,0,1-1.475,1.331l2.774,4.582h-3.9L18.329,8.4H17.024v3.923Zm0-9.136V5.766h1.36a2.514,2.514,0,0,0,1.428-.332,1.082,1.082,0,0,0,.455-.957l0-.09a1.055,1.055,0,0,0-.453-.867,2.514,2.514,0,0,0-1.428-.332Zm20.321,9.136H33.653L38.615.237h3.6l4.952,12.086h-3.69l-.806-2.112H38.15l-.806,2.112ZM40.41,4.3h0L39.282,7.261h2.262L40.41,4.3Zm24.323,8.026H56.116V.237h8.532V3.188H59.63V4.8h4.687v2.95H59.63V9.373h5.1v2.95Zm-12.68,0H48.539V3.188H45.082V.237H55.51V3.188H52.053v9.135Zm-18.518,0H24.919V.237h8.532V3.188h-5.02V4.8h4.687V7.752H28.432V9.373h5.1v2.95Z" transform="translate(6.375)" fill="#fff"/>
        <path id="Shape-2" data-name="Shape" d="M29.706,12.339a6.8,6.8,0,0,1-2.53-.463,6.182,6.182,0,0,1-2.02-1.293,5.878,5.878,0,0,1-1.334-1.95,6.225,6.225,0,0,1-.474-2.44,6.234,6.234,0,0,1,.482-2.46,6.015,6.015,0,0,1,1.346-1.97,6.157,6.157,0,0,1,2.036-1.3A6.918,6.918,0,0,1,29.764,0a7.248,7.248,0,0,1,2.481.427,6.572,6.572,0,0,1,2.09,1.226l-.964.9a4.761,4.761,0,0,0-1.62-.981,5.725,5.725,0,0,0-1.97-.34,5.359,5.359,0,0,0-1.986.36,4.541,4.541,0,0,0-2.588,2.583,5.309,5.309,0,0,0-.362,1.985A5.378,5.378,0,0,0,25.2,8.143a4.7,4.7,0,0,0,1.006,1.57,4.512,4.512,0,0,0,1.537,1.028,5.4,5.4,0,0,0,3.76.052,4.437,4.437,0,0,0,2.469-2.254,5.108,5.108,0,0,0,.478-1.752H29.88v-1.1h5.867l.042.514a6.7,6.7,0,0,1-.444,2.476,5.754,5.754,0,0,1-1.259,1.946,5.659,5.659,0,0,1-1.928,1.27A6.561,6.561,0,0,1,29.706,12.339ZM38.26,12.1H36.8V.237H38.26V5.632h6.956V.237h1.463V12.1H45.216V6.866H38.26V12.1Zm-26.53,0H10.267V.237H14.58a5.677,5.677,0,0,1,2.3.427A3.388,3.388,0,0,1,18.37,1.878a3.327,3.327,0,0,1,.524,1.878,3.261,3.261,0,0,1-.711,2.136,3.707,3.707,0,0,1-1.99,1.194L19.275,12.1H17.647L14.672,7.277H11.73V12.1Zm0-10.631V6.043h2.759a3.385,3.385,0,0,0,2.132-.609A2.022,2.022,0,0,0,17.4,3.757a2.027,2.027,0,0,0-.773-1.676,3.384,3.384,0,0,0-2.136-.609ZM52.994,12.1H51.531V1.471H47.526V.237H57V1.471H52.994V12.1Zm-31.042,0H20.489V.237h1.463V12.1Zm-17.19,0H0V.237H4.421a4.535,4.535,0,0,1,2.809.783A2.571,2.571,0,0,1,8.252,3.172,2.844,2.844,0,0,1,6.391,5.917l.149.038a3.22,3.22,0,0,1,1.642.994A2.793,2.793,0,0,1,8.834,8.82a2.965,2.965,0,0,1-.511,1.72A3.373,3.373,0,0,1,6.9,11.691,5.188,5.188,0,0,1,4.762,12.1Zm-3.3-5.561v4.327H4.446a3.789,3.789,0,0,0,1.513-.281A2.4,2.4,0,0,0,6.973,9.8l.064-.092a1.937,1.937,0,0,0,.3-1.066A1.855,1.855,0,0,0,6.993,7.53,2.2,2.2,0,0,0,6.021,6.8a3.888,3.888,0,0,0-1.475-.257Zm0-5.07v4H4.388A2.658,2.658,0,0,0,6.145,4.92a1.822,1.822,0,0,0,.661-1.463,1.762,1.762,0,0,0-.673-1.452A2.893,2.893,0,0,0,4.3,1.471Z" transform="translate(0 14.202)" fill="#fff"/>
        <path id="Shape-3" data-name="Shape" d="M26.1,17.909H.289V14.132H26.1v3.777ZM6.726,12.561a7.471,7.471,0,0,1-2.678-.47,6.533,6.533,0,0,1-2.139-1.32A5.986,5.986,0,0,1,.5,8.777a6.191,6.191,0,0,1-.5-2.5,6.191,6.191,0,0,1,.5-2.5A6,6,0,0,1,1.909,1.79,6.528,6.528,0,0,1,4.048.47,7.5,7.5,0,0,1,6.734,0,7.446,7.446,0,0,1,9.409.47a6.44,6.44,0,0,1,2.126,1.321,6.049,6.049,0,0,1,1.4,1.994,6.2,6.2,0,0,1,.5,2.5,6.2,6.2,0,0,1-.5,2.5,6.052,6.052,0,0,1-1.4,1.994,6.447,6.447,0,0,1-2.126,1.321A7.464,7.464,0,0,1,6.726,12.561Zm0-9.61A3.06,3.06,0,0,0,5.487,3.2a3.02,3.02,0,0,0-1,.706,3.3,3.3,0,0,0-.664,1.06,3.745,3.745,0,0,0,0,2.624,3.3,3.3,0,0,0,.664,1.06,3.017,3.017,0,0,0,1,.706,3.063,3.063,0,0,0,1.239.252,3.029,3.029,0,0,0,1.235-.252,2.99,2.99,0,0,0,.99-.706,3.343,3.343,0,0,0,.659-1.06,3.745,3.745,0,0,0,0-2.624,3.344,3.344,0,0,0-.659-1.061,2.99,2.99,0,0,0-.99-.706A3.031,3.031,0,0,0,6.726,2.951Zm10.9,9.374H14.111V.237h4.045L22.471,7.03V.237h3.513V12.324H21.94l-4.316-6.77v6.77Z" transform="translate(56.313 14.091)" fill="#ef7918"/>
      </g>
    </g>
  </g>
</svg>
